Normalized EMG Linear Envelopes
nRows=135
nColumns=4

endheader
time	 med_gas_r	  soleus_r	 tib_ant_r	
4.36565	  0.025063	  0.028151	  0.015282	
4.43722	  0.023142	  0.027905	  0.015156	
4.50878	  0.021630	  0.027544	  0.014889	
4.58035	  0.020769	  0.027281	  0.014725	
4.65192	  0.020984	  0.027137	  0.014914	
4.72349	  0.022821	  0.027214	  0.015221	
4.79506	  0.027309	  0.027742	  0.015379	
4.86662	  0.036005	  0.029208	  0.015550	
4.93819	  0.046511	  0.031477	  0.015880	
5.00976	  0.050293	  0.033158	  0.016157	
5.08133	  0.043652	  0.033586	  0.016196	
5.1529	  0.037177	  0.033399	  0.015954	
5.22446	  0.035685	  0.032706	  0.015708	
5.29603	  0.037331	  0.031293	  0.015139	
5.3676	  0.040319	  0.029749	  0.013142	
5.43917	  0.044561	  0.028804	  0.009494	
5.51074	  0.047606	  0.028745	  0.005733	
5.5823	  0.046725	  0.029453	  0.007110	
5.65387	  0.044250	  0.031809	  0.024463	
5.72544	  0.040395	  0.037877	  0.073003	
5.79701	  0.039769	  0.048036	  0.159285	
5.86858	  0.044528	  0.057204	  0.249937	
5.94014	  0.050295	  0.056358	  0.280498	
6.01171	  0.050782	  0.046983	  0.244996	
6.08328	  0.043640	  0.035877	  0.186940	
6.15485	  0.043211	  0.029163	  0.149015	
6.22642	  0.067843	  0.037393	  0.133530	
6.29798	  0.144000	  0.077002	  0.108702	
6.36955	  0.296355	  0.163137	  0.070932	
6.44112	  0.487106	  0.283812	  0.044440	
6.51269	  0.607329	  0.379384	  0.033488	
6.58426	  0.677133	  0.470353	  0.034565	
6.65582	  0.723426	  0.572391	  0.042349	
6.72739	  0.741926	  0.614488	  0.049746	
6.79896	  0.745049	  0.601220	  0.053798	
6.87053	  0.740472	  0.612616	  0.055008	
6.9421	  0.736877	  0.655562	  0.055507	
7.01366	  0.747395	  0.708567	  0.055068	
7.08523	  0.753847	  0.746576	  0.054467	
7.1568	  0.758006	  0.741961	  0.052657	
7.22837	  0.769101	  0.702678	  0.050794	
7.29994	  0.803804	  0.686145	  0.051827	
7.3715	  0.823256	  0.683425	  0.054794	
7.44307	  0.831924	  0.704616	  0.057655	
7.51464	  0.831177	  0.742637	  0.059726	
7.58621	  0.820388	  0.771309	  0.059921	
7.65778	  0.814296	  0.788846	  0.059941	
7.72934	  0.800377	  0.800822	  0.061036	
7.80091	  0.799305	  0.815294	  0.063236	
7.87248	  0.818578	  0.833497	  0.064638	
7.94405	  0.867325	  0.854590	  0.064768	
8.01562	  0.905862	  0.877945	  0.063985	
8.08718	  0.926229	  0.914223	  0.063457	
8.15875	  0.960839	  0.943972	  0.064609	
8.23032	  0.986718	  0.946183	  0.064215	
8.30189	  0.999241	  0.925972	  0.064390	
8.37346	  0.971195	  0.909261	  0.064166	
8.44502	  0.919925	  0.917451	  0.062803	
8.51659	  0.862438	  0.938091	  0.060588	
8.58816	  0.821456	  0.973536	  0.059230	
8.65973	  0.778363	  0.995812	  0.058662	
8.7313	  0.730952	  0.967284	  0.058811	
8.80286	  0.707343	  0.909060	  0.059077	
8.87443	  0.695411	  0.838319	  0.056948	
8.946	  0.680301	  0.806957	  0.053638	
9.01757	  0.679475	  0.841034	  0.051697	
9.08914	  0.696028	  0.892478	  0.052224	
9.1607	  0.709808	  0.905915	  0.053594	
9.23227	  0.704114	  0.893450	  0.053700	
9.30384	  0.695774	  0.868999	  0.052436	
9.37541	  0.713762	  0.854247	  0.051730	
9.44698	  0.735826	  0.854939	  0.051355	
9.51854	  0.755746	  0.859608	  0.050613	
9.59011	  0.744057	  0.841024	  0.048889	
9.66168	  0.705137	  0.804781	  0.048071	
9.73325	  0.694696	  0.822486	  0.048518	
9.80482	  0.694003	  0.860968	  0.049338	
9.87638	  0.677436	  0.871901	  0.050143	
9.94795	  0.671240	  0.855352	  0.051636	
10.0195	  0.674408	  0.840725	  0.052000	
10.0911	  0.654208	  0.824057	  0.049098	
10.1627	  0.597705	  0.814738	  0.045262	
10.2342	  0.531469	  0.798601	  0.043300	
10.3058	  0.474208	  0.769606	  0.042685	
10.3774	  0.464109	  0.745061	  0.043077	
10.4489	  0.503607	  0.729473	  0.042795	
10.5205	  0.566864	  0.724465	  0.042502	
10.5921	  0.615412	  0.733462	  0.043027	
10.6636	  0.621689	  0.759510	  0.043852	
10.7352	  0.613271	  0.797922	  0.045109	
10.8068	  0.595818	  0.818927	  0.046628	
10.8783	  0.596712	  0.828856	  0.048598	
10.9499	  0.608151	  0.824120	  0.048410	
11.0215	  0.619867	  0.809972	  0.046698	
11.093	  0.622726	  0.766858	  0.046574	
11.1646	  0.608592	  0.719851	  0.047973	
11.2362	  0.608271	  0.706936	  0.048196	
11.3077	  0.638444	  0.740409	  0.046147	
11.3793	  0.685603	  0.795692	  0.044882	
11.4509	  0.733031	  0.889487	  0.046712	
11.5224	  0.767255	  0.981241	  0.051469	
11.594	  0.778062	  0.991780	  0.056563	
11.6656	  0.762462	  0.920985	  0.058544	
11.7372	  0.741234	  0.826294	  0.056682	
11.8087	  0.700123	  0.760702	  0.052648	
11.8803	  0.654032	  0.723470	  0.051146	
11.9519	  0.630698	  0.682582	  0.051990	
12.0234	  0.647949	  0.658509	  0.053140	
12.095	  0.664441	  0.653940	  0.053595	
12.1666	  0.635753	  0.632274	  0.051357	
12.2381	  0.593597	  0.626312	  0.047999	
12.3097	  0.520375	  0.598226	  0.043050	
12.3813	  0.468725	  0.606205	  0.039296	
12.4528	  0.442698	  0.608346	  0.036463	
12.5244	  0.418844	  0.584654	  0.033709	
12.596	  0.380514	  0.552292	  0.031660	
12.6675	  0.338102	  0.514603	  0.029995	
12.7391	  0.310910	  0.475141	  0.028990	
12.8107	  0.307629	  0.467735	  0.028840	
12.8822	  0.310174	  0.461184	  0.028253	
12.9538	  0.320926	  0.474924	  0.027873	
13.0254	  0.335887	  0.492215	  0.027738	
13.0969	  0.350203	  0.532675	  0.028065	
13.1685	  0.351745	  0.536442	  0.028309	
13.2401	  0.349872	  0.482488	  0.028916	
13.3116	  0.353515	  0.420737	  0.030047	
13.3832	  0.347352	  0.389519	  0.031015	
13.4548	  0.335227	  0.373941	  0.030985	
13.5264	  0.325485	  0.374314	  0.029140	
13.5979	  0.324019	  0.362928	  0.026751	
13.6695	  0.336998	  0.360696	  0.024870	
13.7411	  0.341151	  0.359140	  0.024437	
13.8126	  0.329436	  0.345719	  0.025356	
13.8842	  0.326743	  0.344278	  0.026134	
13.9558	  0.337839	  0.342287	  0.025707	
